<svg width="81" height="85" viewBox="0 0 81 85" fill="none" xmlns="http://www.w3.org/2000/svg">
<path d="M11.778 72.1802C4.07828 63.9872 1.48698 58.5755 0.144531 47.4057C39.1648 23.2949 51.9234 60.1585 4.32973 84.9781C7.92719 80.3044 9.59058 77.5179 11.778 72.1802Z" fill="white"/>
<path d="M32.9141 7.52818C13.1693 13.0689 3.06741 22.959 0 43.3897C31.0608 25.5795 63.7894 39.8764 43.4125 85C91.0538 78.8049 89.0704 25.496 61.572 12.7295C69.4298 29.7122 69.3729 44.7397 61.3592 61.868C59.9712 45.7118 55.7553 39.2557 41.781 33.9452C48.8099 33.7875 52.8931 34.5264 58.8765 37.504C58.9669 19.6385 42.793 2.17752 27.6649 0C30.1619 2.78642 31.4524 4.38654 32.9141 7.52818Z" fill="white"/>
</svg>
